# xmcd
#
# Track frame offsets:
#	150
#	16757
#	29607
#	45357
#	60130
#	82325
#	97595
#	113815
#	124077
#	140617
#
# Disc length: 2127 seconds
# Revision: 9
# Processed by: cddbd v1.5.2PL0 Copyright (c) Steve Scherf et al.
# Submitted via: dBpowerAMP V12.0
#
DISCID=74084d0a
DTITLE=Ty Herndon - What Mattered Most
DYEAR=1995
DGENRE=Country
TTITLE0=What Mattered Most
TTITLE1=Pretty Good Thing
TTITLE2=Summer Was a Bummer
TTITLE3=You Don’t Mess Around With Jim
TTITLE4=Heart Half Empty
TTITLE5=I Want My Goodbye Back
TTITLE6=You Just Get One
TTITLE7=In Your Face
TTITLE8=Love at 90 Miles an Hour
TTITLE9=Hat Full of Rain
EXTD=
EXTT0=
EXTT1=
EXTT2=
EXTT3=
EXTT4=
EXTT5=
EXTT6=
EXTT7=
EXTT8=
EXTT9=
PLAYORDER=
